PathFileType	4	(X/Y/Z)	 2.2Hzhigh3min.trc
DataRate	CameraRate	NumFrames	NumMarkers	Units	OrigDataRate	OrigDataStartFrame	OrigNumFrames
200	200	11	35	m	200	501	1000
Frame#	Time	C7			LSH			RSH			MAN			RASI			LASI			HIPR			HIPL			RPSI			LPSI			COX			RTHI1			RTHI2			RTHI3			RTHI4			RSHA1			RSHA2			RSHA3			RSHA4			RHEEL			RMET5			RMET1			RTOE			LTHI1			LTHI2			LTHI3			LTHI4			LSHA1			LSHA2			LSHA3			LSHA4			LHEEL			LMET5			LMET1			LTOE			
		X1	Y1	Z1	X2	Y2	Z2	X3	Y3	Z3	X4	Y4	Z4	X5	Y5	Z5	X6	Y6	Z6	X7	Y7	Z7	X8	Y8	Z8	X9	Y9	Z9	X10	Y10	Z10	X11	Y11	Z11	X12	Y12	Z12	X13	Y13	Z13	X14	Y14	Z14	X15	Y15	Z15	X16	Y16	Z16	X17	Y17	Z17	X18	Y18	Z18	X19	Y19	Z19	X20	Y20	Z20	X21	Y21	Z21	X22	Y22	Z22	X23	Y23	Z23	X24	Y24	Z24	X25	Y25	Z25	X26	Y26	Z26	X27	Y27	Z27	X28	Y28	Z28	X29	Y29	Z29	X30	Y30	Z30	X31	Y31	Z31	X32	Y32	Z32	X33	Y33	Z33	X34	Y34	Z34	X35	Y35	Z35	
501	2.5050	-0.293543	1.584568	-0.522361	-0.241196	1.568610	-0.750586	-0.240431	1.564898	-0.321321	-0.142203	1.530015	-0.533786	-0.141927	1.065698	-0.416827	-0.141141	1.056093	-0.642905	-0.203331	1.126663	-0.368193	-0.216960	1.120837	-0.694532	-0.327281	1.086250	-0.470059	-0.329225	1.082689	-0.579584	-0.334322	1.090262	-0.524256	-0.190682	0.862950	-0.328899	-0.168550	0.808554	-0.315561	-0.107299	0.826379	-0.327164	-0.122007	0.884474	-0.342002	-0.255203	0.316903	-0.312673	-0.272610	0.277912	-0.322649	-0.214334	0.260820	-0.325277	-0.201791	0.298448	-0.319337	-0.381771	0.066309	-0.385326	-0.203069	0.023326	-0.302522	-0.156812	0.041779	-0.396350	-0.124080	0.029994	-0.393478	-0.186672	0.805469	-0.733398	-0.155262	0.752363	-0.743615	-0.096557	0.781006	-0.740648	-0.120126	0.835059	-0.731058	-0.276086	0.306357	-0.730455	-0.294983	0.271589	-0.722129	-0.237153	0.246616	-0.723980	-0.225185	0.288937	-0.733697	-0.404772	0.078197	-0.658045	-0.233545	0.023526	-0.752548	-0.184725	0.042006	-0.673881	-0.149552	0.030083	-0.677712	
502	2.5100	-0.293518	1.582237	-0.522423	-0.241049	1.566254	-0.750686	-0.240682	1.562177	-0.321156	-0.142176	1.527773	-0.533717	-0.142228	1.062809	-0.416859	-0.141563	1.052992	-0.642976	-0.203705	1.124024	-0.368239	-0.217763	1.118231	-0.694557	-0.327459	1.083970	-0.470224	-0.329352	1.080561	-0.579893	-0.334463	1.088083	-0.524418	-0.190599	0.860529	-0.329125	-0.168356	0.806183	-0.315827	-0.107132	0.824143	-0.327389	-0.121970	0.882221	-0.342173	-0.254604	0.315255	-0.313436	-0.272392	0.275619	-0.323678	-0.213823	0.259201	-0.325946	-0.201188	0.296839	-0.319970	-0.381792	0.064892	-0.386681	-0.203228	0.023401	-0.302627	-0.156812	0.041784	-0.396396	-0.124022	0.029988	-0.393429	-0.186853	0.803411	-0.733602	-0.155584	0.750382	-0.743851	-0.096758	0.778918	-0.741131	-0.120291	0.832985	-0.731485	-0.276210	0.304610	-0.729667	-0.295106	0.269824	-0.721210	-0.237298	0.244822	-0.723359	-0.225332	0.287111	-0.733165	-0.404930	0.076401	-0.656410	-0.233745	0.023638	-0.752361	-0.184657	0.042036	-0.673835	-0.149382	0.030107	-0.677913	
503	2.5150	-0.293557	1.580424	-0.522530	-0.240909	1.564472	-0.750799	-0.240982	1.560066	-0.320999	-0.142258	1.526199	-0.533666	-0.142418	1.060554	-0.416963	-0.141860	1.050682	-0.643020	-0.203886	1.122074	-0.368302	-0.218275	1.116229	-0.694664	-0.327554	1.082361	-0.470348	-0.329424	1.078847	-0.580202	-0.334575	1.086475	-0.524592	-0.190409	0.858631	-0.329400	-0.168018	0.804344	-0.316151	-0.106844	0.822440	-0.327750	-0.121842	0.880496	-0.342482	-0.253852	0.314174	-0.314105	-0.271718	0.274595	-0.324365	-0.213173	0.258070	-0.326549	-0.200458	0.295717	-0.320572	-0.381725	0.064106	-0.387769	-0.203322	0.023474	-0.302721	-0.156759	0.041783	-0.396437	-0.123927	0.029983	-0.393417	-0.187137	0.801870	-0.733739	-0.156011	0.748850	-0.744017	-0.097073	0.777333	-0.741544	-0.120554	0.831416	-0.731854	-0.276384	0.303196	-0.728808	-0.295237	0.268385	-0.720187	-0.237459	0.243383	-0.722667	-0.225524	0.285657	-0.732550	-0.404959	0.074903	-0.654779	-0.233925	0.023794	-0.752125	-0.184537	0.042070	-0.673781	-0.149180	0.030138	-0.678113	
504	2.5200	-0.293664	1.579139	-0.522672	-0.240778	1.563287	-0.750926	-0.241312	1.558500	-0.320905	-0.142387	1.525252	-0.533643	-0.142504	1.058990	-0.417125	-0.142028	1.049207	-0.643052	-0.203862	1.120808	-0.368397	-0.218367	1.115159	-0.694795	-0.327561	1.081358	-0.470455	-0.329481	1.077936	-0.580433	-0.334630	1.085415	-0.524776	-0.190074	0.857289	-0.329727	-0.167513	0.803077	-0.316531	-0.106406	0.821303	-0.328254	-0.121584	0.879335	-0.342938	-0.252957	0.313668	-0.314642	-0.270803	0.274076	-0.324964	-0.212403	0.257462	-0.327050	-0.199605	0.295084	-0.321093	-0.381612	0.063981	-0.388501	-0.203348	0.023536	-0.302791	-0.156648	0.041776	-0.396470	-0.123790	0.029979	-0.393448	-0.187468	0.800824	-0.733830	-0.156430	0.747733	-0.744098	-0.097438	0.776237	-0.741866	-0.120864	0.830342	-0.732161	-0.276614	0.302136	-0.727926	-0.295394	0.267292	-0.719149	-0.237647	0.242324	-0.721956	-0.225756	0.284589	-0.731905	-0.404895	0.073711	-0.653245	-0.234082	0.023955	-0.751870	-0.184384	0.042106	-0.673721	-0.148966	0.030168	-0.678291	
505	2.5250	-0.293834	1.578410	-0.522841	-0.240660	1.562712	-0.751059	-0.241676	1.557562	-0.320860	-0.142527	1.524890	-0.533646	-0.142449	1.058095	-0.417348	-0.142033	1.048586	-0.643133	-0.203641	1.120209	-0.368542	-0.218562	1.114856	-0.695086	-0.327471	1.080923	-0.470570	-0.329491	1.077724	-0.580563	-0.334602	1.084917	-0.524958	-0.189567	0.856532	-0.330110	-0.166840	0.802408	-0.316965	-0.105806	0.820750	-0.328898	-0.121176	0.878747	-0.343539	-0.251967	0.313693	-0.315040	-0.269621	0.274295	-0.325351	-0.211559	0.257350	-0.327446	-0.198671	0.294954	-0.321509	-0.381484	0.064432	-0.388786	-0.203305	0.023582	-0.302836	-0.156491	0.041763	-0.396494	-0.123618	0.029975	-0.393523	-0.187804	0.800295	-0.733894	-0.156816	0.747075	-0.744109	-0.097808	0.775643	-0.742085	-0.121180	0.829780	-0.732400	-0.276914	0.301451	-0.727077	-0.295599	0.266573	-0.718186	-0.237875	0.241660	-0.721264	-0.226048	0.283937	-0.731254	-0.404776	0.072834	-0.651906	-0.234214	0.024109	-0.751619	-0.184217	0.042135	-0.673662	-0.148761	0.030191	-0.678433	
506	2.5300	-0.294057	1.578256	-0.523025	-0.240566	1.562762	-0.751196	-0.242064	1.557263	-0.320850	-0.142669	1.525101	-0.533671	-0.142258	1.057870	-0.417609	-0.141901	1.048781	-0.643286	-0.203247	1.120250	-0.368762	-0.218370	1.115307	-0.695461	-0.327275	1.081025	-0.470702	-0.329378	1.077951	-0.580774	-0.334472	1.084973	-0.525144	-0.188899	0.856373	-0.330547	-0.166002	0.802329	-0.317446	-0.105061	0.820774	-0.329685	-0.120616	0.878715	-0.344281	-0.250971	0.314170	-0.315315	-0.268463	0.275121	-0.325397	-0.210711	0.257707	-0.327726	-0.197726	0.295283	-0.321823	-0.381372	0.065370	-0.388697	-0.203204	0.023609	-0.302855	-0.156305	0.041740	-0.396509	-0.123429	0.029972	-0.393633	-0.188123	0.800321	-0.733950	-0.157185	0.747012	-0.744073	-0.098163	0.775570	-0.742191	-0.121470	0.829749	-0.732567	-0.277311	0.301142	-0.726312	-0.295885	0.266237	-0.717330	-0.238166	0.241399	-0.720636	-0.226428	0.283705	-0.730639	-0.404633	0.072283	-0.650860	-0.234311	0.024239	-0.751398	-0.184053	0.042152	-0.673605	-0.148581	0.030203	-0.678527	
507	2.5350	-0.294318	1.578699	-0.523218	-0.240500	1.563435	-0.751330	-0.242474	1.557593	-0.320876	-0.142800	1.525861	-0.533706	-0.141908	1.058308	-0.417915	-0.141631	1.049719	-0.643547	-0.202719	1.120915	-0.369062	-0.218240	1.116488	-0.695918	-0.326956	1.081648	-0.470860	-0.329127	1.078752	-0.581094	-0.334223	1.085571	-0.525343	-0.188099	0.856807	-0.331026	-0.165055	0.802813	-0.317964	-0.104211	0.821337	-0.330581	-0.119919	0.879226	-0.345144	-0.250048	0.315100	-0.315451	-0.267511	0.276067	-0.325423	-0.209939	0.258486	-0.327893	-0.196865	0.296041	-0.322048	-0.381223	0.066690	-0.388227	-0.203063	0.023619	-0.302852	-0.156117	0.041712	-0.396518	-0.123250	0.029969	-0.393766	-0.188417	0.800935	-0.733999	-0.157544	0.747599	-0.744005	-0.098502	0.776031	-0.742187	-0.121719	0.830266	-0.732658	-0.277832	0.301194	-0.725685	-0.296283	0.266250	-0.716653	-0.238545	0.241531	-0.720112	-0.226919	0.283882	-0.730109	-0.404493	0.072046	-0.650165	-0.234359	0.024341	-0.751223	-0.183911	0.042157	-0.673555	-0.148441	0.030206	-0.678573	
508	2.5400	-0.294609	1.579751	-0.523416	-0.240471	1.564722	-0.751460	-0.242900	1.558540	-0.320933	-0.142930	1.527191	-0.533742	-0.141420	1.059397	-0.418259	-0.141229	1.051334	-0.643929	-0.202099	1.122183	-0.369433	-0.217901	1.118137	-0.696215	-0.326503	1.082782	-0.471034	-0.328690	1.080118	-0.581479	-0.333846	1.086714	-0.525542	-0.187206	0.857825	-0.331534	-0.164065	0.803867	-0.318511	-0.103308	0.822405	-0.331552	-0.119121	0.880251	-0.346079	-0.249295	0.316377	-0.315470	-0.266781	0.277550	-0.325286	-0.209311	0.259665	-0.327946	-0.196168	0.297187	-0.322167	-0.381004	0.068251	-0.387399	-0.202898	0.023612	-0.302833	-0.155946	0.041678	-0.396523	-0.123106	0.029963	-0.393909	-0.188698	0.802150	-0.734046	-0.157930	0.748777	-0.743914	-0.098838	0.777010	-0.742082	-0.121928	0.831323	-0.732675	-0.278498	0.301595	-0.725227	-0.296834	0.266632	-0.716204	-0.239035	0.242037	-0.719726	-0.227542	0.284441	-0.729692	-0.404374	0.072111	-0.649838	-0.234383	0.024394	-0.751109	-0.183798	0.042150	-0.673512	-0.148348	0.030200	-0.678575	
509	2.5450	-0.294929	1.581395	-0.523612	-0.240484	1.566609	-0.751585	-0.243346	1.560140	-0.320992	-0.143076	1.529067	-0.533783	-0.140759	1.061094	-0.418671	-0.140698	1.053556	-0.644426	-0.201408	1.124031	-0.369865	-0.217466	1.120307	-0.696582	-0.325910	1.084414	-0.471207	-0.328330	1.082005	-0.581742	-0.333338	1.088370	-0.525739	-0.186271	0.859417	-0.332062	-0.163095	0.805456	-0.319076	-0.102407	0.823940	-0.332540	-0.118259	0.881764	-0.347037	-0.248805	0.317942	-0.315446	-0.266286	0.279202	-0.325195	-0.208875	0.261174	-0.327907	-0.195704	0.298684	-0.322209	-0.380702	0.069937	-0.386309	-0.202722	0.023596	-0.302804	-0.155807	0.041636	-0.396523	-0.123012	0.029955	-0.394050	-0.188979	0.803936	-0.734090	-0.158364	0.750499	-0.743811	-0.099192	0.778474	-0.741902	-0.122110	0.832883	-0.732633	-0.279325	0.302322	-0.724955	-0.297535	0.267333	-0.715952	-0.239646	0.242881	-0.719484	-0.228314	0.285361	-0.729400	-0.404283	0.072459	-0.649872	-0.234368	0.024420	-0.751048	-0.183720	0.042129	-0.673479	-0.148301	0.030188	-0.678540	
510	2.5500	-0.295284	1.583607	-0.523803	-0.240550	1.569074	-0.751706	-0.243802	1.562341	-0.321059	-0.143256	1.531479	-0.533829	-0.139942	1.063405	-0.419150	-0.140063	1.056321	-0.644992	-0.200648	1.126436	-0.370337	-0.216986	1.122912	-0.696883	-0.325181	1.086525	-0.471362	-0.327732	1.084464	-0.581980	-0.332699	1.090513	-0.525923	-0.185350	0.861562	-0.332591	-0.162199	0.807550	-0.319640	-0.101561	0.825907	-0.333503	-0.117372	0.883738	-0.347981	-0.248595	0.319766	-0.315394	-0.266086	0.280976	-0.324932	-0.208662	0.262992	-0.327768	-0.195505	0.300508	-0.322173	-0.380317	0.071778	-0.385158	-0.202544	0.023571	-0.302767	-0.155706	0.041591	-0.396518	-0.122973	0.029943	-0.394182	-0.189279	0.806241	-0.734131	-0.158836	0.752721	-0.743696	-0.099583	0.780377	-0.741675	-0.122283	0.834901	-0.732550	-0.280322	0.303334	-0.724871	-0.298394	0.268299	-0.715906	-0.240385	0.244042	-0.719402	-0.229238	0.286597	-0.729269	-0.404215	0.073070	-0.650237	-0.234308	0.024421	-0.751042	-0.183672	0.042111	-0.673461	-0.148295	0.030179	-0.678485	
511	2.5550	-0.295682	1.586343	-0.523987	-0.240681	1.572080	-0.751827	-0.244270	1.565112	-0.321138	-0.143482	1.534417	-0.533885	-0.138964	1.066327	-0.419698	-0.139295	1.059609	-0.645627	-0.199798	1.129380	-0.370832	-0.216592	1.125988	-0.697150	-0.324314	1.089118	-0.471498	-0.327049	1.087361	-0.582204	-0.331931	1.093134	-0.526077	-0.184481	0.864230	-0.333112	-0.161451	0.810131	-0.320187	-0.100820	0.828270	-0.334403	-0.116501	0.886147	-0.348877	-0.248710	0.321874	-0.315242	-0.266099	0.283383	-0.324710	-0.208681	0.265097	-0.327551	-0.195594	0.302646	-0.322053	-0.379838	0.073772	-0.383988	-0.202365	0.023542	-0.302727	-0.155641	0.041545	-0.396508	-0.122986	0.029928	-0.394305	-0.189611	0.809019	-0.734173	-0.159368	0.755361	-0.743589	-0.100033	0.782684	-0.741436	-0.122472	0.837336	-0.732451	-0.281493	0.304604	-0.724967	-0.299392	0.269475	-0.716091	-0.241258	0.245506	-0.719478	-0.230317	0.288126	-0.729286	-0.404157	0.073919	-0.650873	-0.234220	0.024401	-0.751078	-0.183650	0.042098	-0.673460	-0.148326	0.030173	-0.678413	
